<svg width="20" height="15" viewBox="0 0 20 15" fill="none" xmlns="http://www.w3.org/2000/svg">
<g clip-path="url(#clip0_40_492)">
<rect width="20" height="15" rx="2" fill="white"/>
<mask id="mask0_40_492" style="mask-type:luminance" maskUnits="userSpaceOnUse" x="0" y="0" width="20" height="15">
<rect width="20" height="15" fill="white"/>
</mask>
<g mask="url(#mask0_40_492)">
<path fillRule="evenodd" clip-rule="evenodd" d="M5 0H15V15H5V0Z" fill="#F7FCFF"/>
<path fillRule="evenodd" clip-rule="evenodd" d="M8.95558 5.25159L9.98314 3.75L10 12.5H9.57178L9.83451 10.3346C9.83451 10.3346 6.95223 10.864 7.19051 10.597C7.42879 10.33 7.56604 9.84005 7.56604 9.84005L5 8.09241C5 8.09241 5.40477 8.08723 5.73407 7.8873C6.06337 7.68738 5.40477 6.50168 5.40477 6.50168L6.70033 6.69409L7.19051 6.15029L8.16799 7.19462H8.60738L8.16799 4.8025L8.95558 5.25159ZM10 12.5V3.75L11.0444 5.25159L11.832 4.8025L11.3926 7.19462H11.832L12.8095 6.15029L13.2997 6.69409L14.5952 6.50168C14.5952 6.50168 13.9366 7.68738 14.2659 7.8873C14.5952 8.08723 15 8.09241 15 8.09241L12.434 9.84005C12.434 9.84005 12.5712 10.33 12.8095 10.597C13.0478 10.864 10.1655 10.3346 10.1655 10.3346L10.4282 12.5H10Z" fill="#E31D1C"/>
<path fillRule="evenodd" clip-rule="evenodd" d="M15 0H20V15H15V0Z" fill="#E31D1C"/>
<path fillRule="evenodd" clip-rule="evenodd" d="M0 0H5V15H0V0Z" fill="#E31D1C"/>
</g>
</g>
<rect x="0.25" y="0.25" width="19.5" height="14.5" rx="1.75" stroke="black" stroke-opacity="0.08" stroke-width="0.5"/>
<defs>
<clipPath id="clip0_40_492">
<rect width="20" height="15" rx="2" fill="white"/>
</clipPath>
</defs>
</svg>
